<svg xmlns="http://www.w3.org/2000/svg" viewBox="0 0 410 26"><defs><style>.cls-1{fill:#ffffff;}</style></defs><title>Enriching lives and the world</title><g id="レイヤー_2" data-name="レイヤー 2"><g id="レイヤー_1-2" data-name="レイヤー 1"><path class="cls-1" d="M.11,20.09,0,20v-.76l.08-.1a3,3,0,0,0,.68-.28.92.92,0,0,0,.41-.44,2.29,2.29,0,0,0,.18-.73c0-.29,0-.66,0-1.11V4.48c0-.44,0-.81,0-1.11a2,2,0,0,0-.16-.72,1.09,1.09,0,0,0-.42-.46A3.32,3.32,0,0,0,.08,1.9L0,1.8V1.05L.11.94H12.76l.11.11V5.31l-.11.1H11.15l-.1-.07a8.66,8.66,0,0,0-.7-1.73,2.52,2.52,0,0,0-.71-.74A2.61,2.61,0,0,0,8.23,2.6H5.41V9.32h1.7A2,2,0,0,0,8,9.14a1.37,1.37,0,0,0,.53-.58,5,5,0,0,0,.39-1.19L9,7.29h1.28l.11.11v5.49l-.11.11H9l-.11-.08a5,5,0,0,0-.38-1.17,1.49,1.49,0,0,0-.52-.6A1.83,1.83,0,0,0,7.12,11H5.41v7.48h2.8A4,4,0,0,0,9,18.38a2,2,0,0,0,.56-.22,2,2,0,0,0,.47-.42,3.88,3.88,0,0,0,.4-.57,6,6,0,0,0,.37-.82c.12-.32.26-.76.41-1.31l.1-.08h1.59l.11.11L12.75,20l-.1.1Z"/><path class="cls-1" d="M25,20.09l-.1-.1v-.75l.08-.11a1.38,1.38,0,0,0,.75-.43,1.76,1.76,0,0,0,.31-.81,12.5,12.5,0,0,0,.09-1.84V12.3c0-.66,0-1.2,0-1.63a9.76,9.76,0,0,0-.12-1A2.56,2.56,0,0,0,25.68,9a1.75,1.75,0,0,0-.33-.45,1,1,0,0,0-.41-.25,1.63,1.63,0,0,0-.59-.09,1.94,1.94,0,0,0-1,.33,2.77,2.77,0,0,0-.89.91,2.29,2.29,0,0,0-.36,1.24V16a12.91,12.91,0,0,0,.08,1.85,1.66,1.66,0,0,0,.31.82,1.45,1.45,0,0,0,.77.43l.08.11V20l-.1.1H17.16l-.11-.1v-.76l.08-.1a1.62,1.62,0,0,0,.78-.45,1.73,1.73,0,0,0,.33-.8,14.15,14.15,0,0,0,.08-1.83V10.29c0-.7,0-1.21,0-1.54a2.62,2.62,0,0,0-.16-.8,1.1,1.1,0,0,0-.37-.48,2.24,2.24,0,0,0-.8-.31l-.08-.11V6.27l.11-.1,3.45-.11H22l.11.11-.19,1.91.15,0,0-.08c.56-.48,1-.86,1.39-1.13a5.55,5.55,0,0,1,1.28-.7A3.72,3.72,0,0,1,26.13,6a4.16,4.16,0,0,1,1.76.33,2.8,2.8,0,0,1,1.14,1,4.48,4.48,0,0,1,.62,1.54,11,11,0,0,1,.19,2.12V16c0,.42,0,.8,0,1.16a4.53,4.53,0,0,0,.09.86,1.88,1.88,0,0,0,.22.53,1.16,1.16,0,0,0,.38.34,2.55,2.55,0,0,0,.52.21l.08.11V20l-.11.1Z"/><path class="cls-1" d="M35,20.09l-.1-.1v-.76l.07-.1a1.66,1.66,0,0,0,.79-.45,1.63,1.63,0,0,0,.32-.8,12.06,12.06,0,0,0,.09-1.83V10.29c0-.7,0-1.21,0-1.54A2.65,2.65,0,0,0,36,8a1.17,1.17,0,0,0-.37-.48,2.24,2.24,0,0,0-.8-.31l-.08-.11V6.27l.1-.1,3.45-.11h1.53l.11.11-.18,2h0l.17,0a6.13,6.13,0,0,1,1.92-1.74A4.52,4.52,0,0,1,44,6a8.07,8.07,0,0,1,1.58.16l.09.11V9.91l-.11.1H43.42l-.1-.07a3.33,3.33,0,0,0-.56-1.18,1.17,1.17,0,0,0-.94-.43,1.29,1.29,0,0,0-.63.19,2.07,2.07,0,0,0-.63.53,2,2,0,0,0-.41.7,3,3,0,0,0-.17.72c0,.24,0,.61,0,1.09V16A11.56,11.56,0,0,0,40,17.9a1.63,1.63,0,0,0,.36.83,1.61,1.61,0,0,0,.83.41l.09.1V20l-.11.1Z"/><path class="cls-1" d="M49.11,20.09,49,20v-.76l.08-.1a1.62,1.62,0,0,0,.8-.45,1.72,1.72,0,0,0,.32-.8,14.15,14.15,0,0,0,.08-1.83V9.53a8.08,8.08,0,0,0-.06-1.11A1.65,1.65,0,0,0,50,7.75a1.16,1.16,0,0,0-.44-.38,3.2,3.2,0,0,0-.64-.21l-.09-.11V6.27l.11-.1,3.46-.11h1.53l.1.1V16c0,.53,0,.93,0,1.22a4.37,4.37,0,0,0,.06.65,2.13,2.13,0,0,0,.11.42,1.23,1.23,0,0,0,.19.33,1,1,0,0,0,.33.28,2.08,2.08,0,0,0,.51.2l.08.11V20l-.11.1ZM50.48,4l-.11-.11V.68l.11-.1h3.35l.11.1V3.92L53.83,4Z"/><path class="cls-1" d="M65.05,20.32a5.25,5.25,0,0,1-4.29-1.79,8,8,0,0,1-1.48-5.2,9.06,9.06,0,0,1,.81-4,5.7,5.7,0,0,1,2.33-2.54A6.92,6.92,0,0,1,65.89,6,13.28,13.28,0,0,1,68,6.11a11.21,11.21,0,0,1,1.83.42l.08.1V9.84l-.11.1H67.4l-.1-.09A4.86,4.86,0,0,0,66.73,8a1.25,1.25,0,0,0-1.11-.6,1.77,1.77,0,0,0-.91.26,2.14,2.14,0,0,0-.76.89,6.18,6.18,0,0,0-.53,1.71A16.67,16.67,0,0,0,63.23,13a11.48,11.48,0,0,0,.29,2.77,3.44,3.44,0,0,0,.91,1.73,2.29,2.29,0,0,0,1.67.61,3,3,0,0,0,1.41-.35A6.63,6.63,0,0,0,69,16.57h.16L70,17.73v.14a9,9,0,0,1-2.39,1.87A5.92,5.92,0,0,1,65.05,20.32Z"/><path class="cls-1" d="M81.23,20.09l-.11-.1v-.75l.08-.11a1.43,1.43,0,0,0,.76-.42,1.88,1.88,0,0,0,.31-.81,15,15,0,0,0,.08-1.85V12.39c0-.93,0-1.66-.08-2.18A3.82,3.82,0,0,0,82,9a1.53,1.53,0,0,0-.51-.64,1.49,1.49,0,0,0-.84-.21,2,2,0,0,0-1,.33,2.8,2.8,0,0,0-.89.89,2.24,2.24,0,0,0-.36,1.21V16c0,.53,0,.93,0,1.22s0,.5.06.65a2.33,2.33,0,0,0,.11.42,1.35,1.35,0,0,0,.19.33,1,1,0,0,0,.33.28,2.08,2.08,0,0,0,.51.2l.08.11V20l-.11.1H73.4l-.1-.1v-.75l.08-.11a2.08,2.08,0,0,0,.53-.21,1.11,1.11,0,0,0,.34-.3,1.89,1.89,0,0,0,.21-.45,3.08,3.08,0,0,0,.12-.75c0-.33,0-.79,0-1.39V5.1c0-.81,0-1.4,0-1.78a7.7,7.7,0,0,0-.08-.95,2,2,0,0,0-.19-.61.9.9,0,0,0-.38-.37,2.72,2.72,0,0,0-.71-.24l-.08-.1V.3l.1-.11L76.74,0h1.52l.1.11V8a10.41,10.41,0,0,1,2.15-1.59A4,4,0,0,1,82.41,6a3.78,3.78,0,0,1,2.21.56,3.24,3.24,0,0,1,1.13,1.64,8.86,8.86,0,0,1,.36,2.77V16c0,.42,0,.8,0,1.16a3.69,3.69,0,0,0,.1.86,1.63,1.63,0,0,0,.21.53,1.15,1.15,0,0,0,.38.34,2.81,2.81,0,0,0,.52.21l.08.11V20l-.11.1Z"/><path class="cls-1" d="M91.28,20.09l-.1-.1v-.76l.07-.1a1.57,1.57,0,0,0,.8-.45,1.63,1.63,0,0,0,.32-.8,12.06,12.06,0,0,0,.09-1.83V9.53a8.08,8.08,0,0,0-.06-1.11,1.65,1.65,0,0,0-.22-.67,1,1,0,0,0-.44-.38,3,3,0,0,0-.64-.21L91,7.05V6.27l.1-.1,3.47-.11h1.52l.11.1V16c0,.53,0,.93,0,1.22s0,.5.05.65a3.16,3.16,0,0,0,.11.42,1.57,1.57,0,0,0,.19.33,1.08,1.08,0,0,0,.34.28,2.08,2.08,0,0,0,.51.2l.07.11V20l-.1.1ZM92.66,4l-.11-.11V.68l.11-.1H96l.1.1V3.92L96,4Z"/><path class="cls-1" d="M109.29,20.09l-.11-.1v-.75l.08-.11a1.41,1.41,0,0,0,.76-.43,1.76,1.76,0,0,0,.31-.81,12.5,12.5,0,0,0,.09-1.84V12.3c0-.66,0-1.2,0-1.63a7.5,7.5,0,0,0-.13-1A2.26,2.26,0,0,0,110,9a2,2,0,0,0-.33-.45,1.08,1.08,0,0,0-.41-.25,1.63,1.63,0,0,0-.59-.09,1.92,1.92,0,0,0-1,.33,2.77,2.77,0,0,0-.89.91,2.29,2.29,0,0,0-.36,1.24V16a15.25,15.25,0,0,0,.07,1.85,1.66,1.66,0,0,0,.32.82,1.41,1.41,0,0,0,.77.43l.08.11V20l-.11.1h-6.06l-.1-.1v-.76l.07-.1a1.66,1.66,0,0,0,.79-.45,1.63,1.63,0,0,0,.32-.8,12.06,12.06,0,0,0,.09-1.83V10.29c0-.7,0-1.21,0-1.54a2.65,2.65,0,0,0-.15-.8,1.17,1.17,0,0,0-.37-.48,2.24,2.24,0,0,0-.8-.31l-.08-.11V6.27l.1-.1,3.45-.11h1.53l.11.11-.19,1.91.15,0,0-.08c.56-.48,1-.86,1.39-1.13a5.29,5.29,0,0,1,1.27-.7A3.75,3.75,0,0,1,110.46,6a4.17,4.17,0,0,1,1.77.33,2.84,2.84,0,0,1,1.13,1A4.3,4.3,0,0,1,114,8.78a11.11,11.11,0,0,1,.18,2.12V16c0,.42,0,.8,0,1.16a5.37,5.37,0,0,0,.1.86,1.63,1.63,0,0,0,.21.53,1.27,1.27,0,0,0,.38.34,2.93,2.93,0,0,0,.53.21l.07.11V20l-.1.1Z"/><path class="cls-1" d="M125.06,26.38a21.32,21.32,0,0,1-2.65-.15,7,7,0,0,1-2-.51,3,3,0,0,1-1.3-1,2.74,2.74,0,0,1-.47-1.64,2.57,2.57,0,0,1,.47-1.48,3.9,3.9,0,0,1,1.31-1.15,2.4,2.4,0,0,1-.79-1,3.35,3.35,0,0,1-.25-1.35,3,3,0,0,1,.26-1.23,3.83,3.83,0,0,1,.67-1.05,10.4,10.4,0,0,1,1.1-1,4,4,0,0,1-1.53-1.61,5,5,0,0,1-.52-2.35,5.27,5.27,0,0,1,.43-2.24A4.06,4.06,0,0,1,121,7.08a4.89,4.89,0,0,1,1.79-.86A8.71,8.71,0,0,1,125,6a8.17,8.17,0,0,1,1.17.07c.33,0,.66.09,1,.15h4.58l.1.11V7.94l-.12.11-2.11-.25,0,.15a3,3,0,0,1,.6,1.06,5,5,0,0,1,.24,1.64A4.82,4.82,0,0,1,129,14.36a5.76,5.76,0,0,1-4,1.26,7.22,7.22,0,0,1-2.1-.25,1.89,1.89,0,0,0-.64,1.35,1,1,0,0,0,.17.64,1,1,0,0,0,.54.34,3.89,3.89,0,0,0,1.1.12h3.21a5,5,0,0,1,3.25.91,3.56,3.56,0,0,1,1.07,2.84,4.32,4.32,0,0,1-.78,2.59,5,5,0,0,1-2.25,1.65A9.83,9.83,0,0,1,125.06,26.38ZM122.58,21a2.88,2.88,0,0,0-.7.85,2.27,2.27,0,0,0-.24,1.06,1.63,1.63,0,0,0,.8,1.49,5.23,5.23,0,0,0,2.56.48,4.33,4.33,0,0,0,2.47-.58,1.89,1.89,0,0,0,.85-1.65,2,2,0,0,0-.15-.81,1.29,1.29,0,0,0-.61-.56,3,3,0,0,0-1.28-.22h-2.23A13.9,13.9,0,0,1,122.58,21Zm2.34-13.58a1.5,1.5,0,0,0-1.41.8,5.08,5.08,0,0,0-.46,2.47,5.85,5.85,0,0,0,.46,2.62,1.6,1.6,0,0,0,2.8.07,5,5,0,0,0,.47-2.44,6,6,0,0,0-.46-2.62A1.48,1.48,0,0,0,124.92,7.41Z"/><path class="cls-1" d="M144.36,20.09l-.11-.1v-.75l.08-.11a2.34,2.34,0,0,0,.54-.21,1.24,1.24,0,0,0,.34-.3,1.89,1.89,0,0,0,.21-.45,3.08,3.08,0,0,0,.12-.75c0-.33,0-.79,0-1.39V5.1c0-.81,0-1.4,0-1.78a7.7,7.7,0,0,0-.08-.95,1.57,1.57,0,0,0-.19-.61,1,1,0,0,0-.38-.37,2.87,2.87,0,0,0-.71-.24l-.08-.1V.3l.1-.11L147.69,0h1.52l.11.11V16a14.45,14.45,0,0,0,.08,1.84,1.66,1.66,0,0,0,.31.8,1.6,1.6,0,0,0,.83.46l.07.11V20l-.1.1Z"/><path class="cls-1" d="M154.58,20.09l-.1-.1v-.76l.07-.1a1.57,1.57,0,0,0,.8-.45,1.63,1.63,0,0,0,.32-.8,12.06,12.06,0,0,0,.09-1.83V9.53a8.08,8.08,0,0,0-.06-1.11,1.65,1.65,0,0,0-.22-.67,1,1,0,0,0-.44-.38,3,3,0,0,0-.64-.21l-.08-.11V6.27l.1-.1,3.47-.11h1.52l.11.1V16c0,.53,0,.93,0,1.22s0,.5.05.65a3.16,3.16,0,0,0,.11.42,1.57,1.57,0,0,0,.19.33,1.08,1.08,0,0,0,.34.28,2.16,2.16,0,0,0,.5.2l.08.11V20l-.1.1ZM156,4l-.11-.11V.68l.11-.1h3.35l.1.1V3.92l-.1.11Z"/><path class="cls-1" d="M169,20.23l-.1-.07-3.4-10.6A9.31,9.31,0,0,0,165,8a2.08,2.08,0,0,0-.48-.63,1.57,1.57,0,0,0-.58-.28L163.82,7V6.28l.11-.11h6.26l.11.11V7l-.08.11a1.79,1.79,0,0,0-.82.36,1,1,0,0,0-.28.75,6.07,6.07,0,0,0,.34,1.75l1.86,6.13,2.05-5.37a10.85,10.85,0,0,0,.39-1.19,4.4,4.4,0,0,0,.12-1,1.54,1.54,0,0,0-.3-1,1.37,1.37,0,0,0-.8-.46L172.69,7V6.28l.11-.11h4.84l.11.11v.77l-.07.1a2,2,0,0,0-.54.28,2,2,0,0,0-.42.48,6.56,6.56,0,0,0-.49.87c-.19.39-.45,1-.78,1.76l-4,9.63-.1.06Z"/><path class="cls-1" d="M186.76,20.32a5.66,5.66,0,0,1-4.55-1.79,8.06,8.06,0,0,1-1.52-5.31,9.15,9.15,0,0,1,.78-3.93,5.67,5.67,0,0,1,2.23-2.5,7.23,7.23,0,0,1,5.41-.55,4.87,4.87,0,0,1,1.53.82,4.63,4.63,0,0,1,1.05,1.27,7.9,7.9,0,0,1,.74,2,14.68,14.68,0,0,1,.27,2.72l-.11.11h-8.11a6.94,6.94,0,0,0,.84,3.73,2.84,2.84,0,0,0,2.5,1.19,3.81,3.81,0,0,0,1.77-.4,6.16,6.16,0,0,0,1.63-1.32h.16l.92,1.08v.14a8.51,8.51,0,0,1-2.56,2.09A6.76,6.76,0,0,1,186.76,20.32Zm.08-12.9a1.77,1.77,0,0,0-1.58,1.09,7.76,7.76,0,0,0-.71,3.15h4.31a9.09,9.09,0,0,0-.53-3.18A1.56,1.56,0,0,0,186.84,7.42Z"/><path class="cls-1" d="M201.26,20.32a19.82,19.82,0,0,1-4.68-.64l-.09-.11V16.4l.11-.11h1.56l.1.08a3.74,3.74,0,0,0,1,1.84,2.51,2.51,0,0,0,1.79.64,2,2,0,0,0,1.47-.48A1.82,1.82,0,0,0,203,17a2,2,0,0,0-.22-1,2.48,2.48,0,0,0-.75-.78,14.39,14.39,0,0,0-1.79-1,10.74,10.74,0,0,1-1.34-.74,5.54,5.54,0,0,1-1.1-.92,4.11,4.11,0,0,1-.74-1.15,3.53,3.53,0,0,1-.27-1.4,3.66,3.66,0,0,1,.67-2.2,4.23,4.23,0,0,1,1.93-1.41A7.72,7.72,0,0,1,202.23,6c.62,0,1.24,0,1.85.08a22.51,22.51,0,0,1,2.26.35l.09.1V9.57l-.11.11h-1.53l-.11-.08a5.09,5.09,0,0,0-.63-1.32,1.88,1.88,0,0,0-.78-.67,2.41,2.41,0,0,0-1-.19,2,2,0,0,0-1.35.42A1.42,1.42,0,0,0,200.4,9a2.11,2.11,0,0,0,.18.91,2,2,0,0,0,.64.73,10.45,10.45,0,0,0,1.8,1,9.6,9.6,0,0,1,2,1.14,4.11,4.11,0,0,1,1.17,1.38,3.9,3.9,0,0,1,.4,1.82,4.51,4.51,0,0,1-.39,2,3.62,3.62,0,0,1-1.09,1.36,4.75,4.75,0,0,1-1.68.79A8.5,8.5,0,0,1,201.26,20.32Z"/><path class="cls-1" d="M222.49,20.32a4.11,4.11,0,0,1-1.94-.44,2.94,2.94,0,0,1-1.24-1.23,3.85,3.85,0,0,1-.43-1.82,3.68,3.68,0,0,1,1.88-3.25,12.72,12.72,0,0,1,5.68-1.49V10.76a5.89,5.89,0,0,0-.27-2,2.08,2.08,0,0,0-.69-1,1.82,1.82,0,0,0-1-.29,2.21,2.21,0,0,0-1,.23,2,2,0,0,0-.78.84,5.13,5.13,0,0,0-.5,1.65l-.11.09h-2.26l-.11-.11V7.78l.06-.09c.77-.37,1.42-.66,1.93-.86a12.87,12.87,0,0,1,1.56-.51A10.41,10.41,0,0,1,224.59,6,8.24,8.24,0,0,1,225.81,6a6.08,6.08,0,0,1,2.51.44,3,3,0,0,1,1.41,1.47,6.83,6.83,0,0,1,.46,2.79v5.47c0,.62,0,1.09,0,1.43a4,4,0,0,0,.12.75,1.21,1.21,0,0,0,.22.39.93.93,0,0,0,.31.23,3.73,3.73,0,0,0,.63.21l.08.11V20l-.11.1h-4.61l-.11-.11.11-1.73-.18-.06a7.7,7.7,0,0,1-2.06,1.62A4.68,4.68,0,0,1,222.49,20.32Zm4-6.84a5,5,0,0,0-3,.81,2.64,2.64,0,0,0-1,2.21,1.84,1.84,0,0,0,.44,1.32,1.61,1.61,0,0,0,1.21.45,2.1,2.1,0,0,0,1.13-.34,2.58,2.58,0,0,0,1.15-2.13Z"/><path class="cls-1" d="M243,20.09l-.1-.1v-.75l.08-.11a1.38,1.38,0,0,0,.75-.43,1.76,1.76,0,0,0,.31-.81,12.5,12.5,0,0,0,.09-1.84V12.3c0-.66,0-1.2,0-1.63a9.76,9.76,0,0,0-.12-1,2.56,2.56,0,0,0-.24-.68,1.72,1.72,0,0,0-.32-.45,1.12,1.12,0,0,0-.42-.25,1.63,1.63,0,0,0-.59-.09,1.94,1.94,0,0,0-1,.33,2.77,2.77,0,0,0-.89.91,2.29,2.29,0,0,0-.36,1.24V16a13,13,0,0,0,.08,1.85,1.66,1.66,0,0,0,.31.82,1.45,1.45,0,0,0,.77.43l.08.11V20l-.11.1h-6.05l-.11-.1v-.76l.08-.1a1.67,1.67,0,0,0,.78-.45,1.73,1.73,0,0,0,.33-.8,14.15,14.15,0,0,0,.08-1.83V10.29c0-.7,0-1.21,0-1.54a2.62,2.62,0,0,0-.16-.8,1.1,1.1,0,0,0-.37-.48,2.24,2.24,0,0,0-.8-.31L235,7.05V6.27l.11-.1,3.45-.11h1.52l.11.11L240,8.08l.15,0V8.05c.57-.48,1-.86,1.4-1.14a5.55,5.55,0,0,1,1.28-.7,3.7,3.7,0,0,1,1.4-.26,4.17,4.17,0,0,1,1.77.33,2.8,2.8,0,0,1,1.14,1,4.29,4.29,0,0,1,.62,1.54,11,11,0,0,1,.19,2.12V16c0,.42,0,.8,0,1.16a4.44,4.44,0,0,0,.09.86,1.69,1.69,0,0,0,.22.52,1.08,1.08,0,0,0,.38.35,2.55,2.55,0,0,0,.52.21l.07.11V20l-.1.1Z"/><path class="cls-1" d="M257.05,20.32a4,4,0,0,1-3.54-1.76,9.59,9.59,0,0,1-1.17-5.27,10.12,10.12,0,0,1,.71-4,5.29,5.29,0,0,1,2.12-2.48A6.53,6.53,0,0,1,258.56,6a8.47,8.47,0,0,1,1.13.07,10.48,10.48,0,0,1,1.3.3V5.06c0-1,0-1.7,0-2.13a3.77,3.77,0,0,0-.16-1,1.09,1.09,0,0,0-.37-.51,2.37,2.37,0,0,0-.81-.3l-.08-.11V.3l.1-.11L263.11,0h1.52l.11.11V16q0,1.06,0,1.56a2.51,2.51,0,0,0,.15.78,1,1,0,0,0,.37.48,2.34,2.34,0,0,0,.79.31l.08.11V20l-.1.11-3.43.12h-1.46l-.11-.11.11-1.92H261a7.55,7.55,0,0,1-2,1.57A4.2,4.2,0,0,1,257.05,20.32Zm1.77-12.9a1.81,1.81,0,0,0-1.37.62,4.15,4.15,0,0,0-.87,1.8,12,12,0,0,0-.29,2.79,11.52,11.52,0,0,0,.56,4.12,1.84,1.84,0,0,0,1.73,1.35,2.25,2.25,0,0,0,1.1-.3,2.46,2.46,0,0,0,.92-.92,2.73,2.73,0,0,0,.38-1.43V10.78a4.83,4.83,0,0,0-.53-2.54A1.82,1.82,0,0,0,258.82,7.42Z"/><path class="cls-1" d="M283.23,20.32a3.57,3.57,0,0,1-2.89-1.13,5.25,5.25,0,0,1-.95-3.42V7.93h-1.51l-.11-.11V7.05l.08-.11a2.77,2.77,0,0,0,1.09-.4,1.9,1.9,0,0,0,.58-.75,5.75,5.75,0,0,0,.33-1.23c.07-.48.14-1.08.18-1.8l.11-.1H283l.1.11V6.18h3.59l.11.11V7.83l-.11.11h-3.59v6.31a14.5,14.5,0,0,0,.14,2.34,2.25,2.25,0,0,0,.46,1.11,1,1,0,0,0,.8.36,2.51,2.51,0,0,0,.64-.07,2.48,2.48,0,0,0,.6-.25,3.46,3.46,0,0,0,.59-.44l.16,0,.7,1,0,.14a8.54,8.54,0,0,1-2,1.42A4.75,4.75,0,0,1,283.23,20.32Z"/><path class="cls-1" d="M298.07,20.09,298,20v-.75l.08-.11a1.39,1.39,0,0,0,.76-.42,1.88,1.88,0,0,0,.31-.81,15,15,0,0,0,.08-1.85V12.39c0-.93,0-1.66-.08-2.18a3.75,3.75,0,0,0-.29-1.2,1.45,1.45,0,0,0-.51-.64,1.48,1.48,0,0,0-.83-.21,2,2,0,0,0-1,.33,2.91,2.91,0,0,0-.89.89,2.24,2.24,0,0,0-.36,1.21V16c0,.53,0,.93,0,1.22s0,.5.06.65a2.58,2.58,0,0,0,.11.42,1.35,1.35,0,0,0,.19.33,1.16,1.16,0,0,0,.33.28,2.26,2.26,0,0,0,.51.2l.08.11V20l-.11.1h-6.14l-.11-.1v-.75l.08-.11a2.08,2.08,0,0,0,.53-.21,1.11,1.11,0,0,0,.34-.3,1.89,1.89,0,0,0,.21-.45,3.08,3.08,0,0,0,.12-.75c0-.33,0-.79,0-1.39V5.1c0-.81,0-1.4,0-1.78a7.5,7.5,0,0,0-.09-.95,1.76,1.76,0,0,0-.19-.61,1,1,0,0,0-.37-.37,3,3,0,0,0-.71-.24l-.09-.1V.3l.1-.11,3.5-.19h1.52l.1.11V8a10.68,10.68,0,0,1,2.15-1.59,4.11,4.11,0,0,1,1.9-.47,3.78,3.78,0,0,1,2.21.56,3.24,3.24,0,0,1,1.13,1.64,8.86,8.86,0,0,1,.36,2.77V16c0,.42,0,.8,0,1.16a4.32,4.32,0,0,0,.1.86,1.48,1.48,0,0,0,.21.52,1.17,1.17,0,0,0,.38.35,2.81,2.81,0,0,0,.52.21l.08.11V20l-.11.1Z"/><path class="cls-1" d="M314.16,20.32a5.65,5.65,0,0,1-4.54-1.79,8.06,8.06,0,0,1-1.52-5.31,9.15,9.15,0,0,1,.78-3.93,5.71,5.71,0,0,1,2.22-2.5,7.26,7.26,0,0,1,5.42-.55,4.71,4.71,0,0,1,1.52.82,4.46,4.46,0,0,1,1,1.27,7.22,7.22,0,0,1,.74,2,13.22,13.22,0,0,1,.27,2.72l-.1.11h-8.12a6.84,6.84,0,0,0,.85,3.73,2.83,2.83,0,0,0,2.5,1.19,3.84,3.84,0,0,0,1.77-.4,6.16,6.16,0,0,0,1.63-1.32h.16l.92,1.08v.14a8.51,8.51,0,0,1-2.56,2.09A6.81,6.81,0,0,1,314.16,20.32Zm.08-12.9a1.78,1.78,0,0,0-1.58,1.09,7.61,7.61,0,0,0-.7,3.15h4.3a9.09,9.09,0,0,0-.52-3.18A1.56,1.56,0,0,0,314.24,7.42Z"/><path class="cls-1" d="M344.26,20.23l-.1-.07-2.42-9-2.8,9-.1.07h-2.47l-.1-.07-3.13-10.6a11,11,0,0,0-.47-1.42,2.49,2.49,0,0,0-.44-.69,1.34,1.34,0,0,0-.59-.32l-.08-.1V6.28l.11-.11h6.14l.1.11V7l-.08.11a1.57,1.57,0,0,0-.83.38,1.06,1.06,0,0,0-.31.8,3.24,3.24,0,0,0,.11.77c.07.29.15.59.23.91l1.62,5.82,2.94-9.56.11-.08H344l.11.08,2.49,9.56,1.68-5.06a10.5,10.5,0,0,0,.36-1.28,5.47,5.47,0,0,0,.1-.91,1.54,1.54,0,0,0-.31-1,1.32,1.32,0,0,0-.8-.46L347.5,7V6.28l.1-.11h4.69l.1.11v.77l-.07.1a1.63,1.63,0,0,0-.53.27,1.68,1.68,0,0,0-.4.46,6,6,0,0,0-.43.85c-.16.38-.39,1-.69,1.81l-3.46,9.62-.1.07Z"/><path class="cls-1" d="M361.65,20.32a7,7,0,0,1-3.28-.72,4.94,4.94,0,0,1-2.16-2.32,9.22,9.22,0,0,1-.78-4.05,10,10,0,0,1,.48-3.26,6.31,6.31,0,0,1,1.33-2.27,5.43,5.43,0,0,1,2.05-1.33A7.61,7.61,0,0,1,361.86,6a6.06,6.06,0,0,1,4.73,1.78,7.7,7.7,0,0,1,1.6,5.25,9.56,9.56,0,0,1-.79,4.09,5.4,5.4,0,0,1-2.26,2.45A7.23,7.23,0,0,1,361.65,20.32Zm.16-12.9a1.79,1.79,0,0,0-1.41.6,3.91,3.91,0,0,0-.77,1.8,15.62,15.62,0,0,0-.25,3.1,12.21,12.21,0,0,0,.62,4.45,2,2,0,0,0,1.85,1.48,1.76,1.76,0,0,0,1.14-.38,2.61,2.61,0,0,0,.73-1.09,6.92,6.92,0,0,0,.4-1.72,19.23,19.23,0,0,0,.12-2.25,12.44,12.44,0,0,0-.62-4.5C363.21,7.92,362.6,7.42,361.81,7.42Z"/><path class="cls-1" d="M372.43,20.09l-.11-.1v-.76l.08-.1a1.71,1.71,0,0,0,.79-.45,1.84,1.84,0,0,0,.32-.8,14.15,14.15,0,0,0,.08-1.83V10.29c0-.7,0-1.21,0-1.54a2.35,2.35,0,0,0-.16-.8,1.1,1.1,0,0,0-.37-.48,2.25,2.25,0,0,0-.79-.31l-.09-.11V6.27l.11-.1,3.45-.11h1.52l.11.11-.17,2h0l.17,0a6.16,6.16,0,0,1,1.93-1.74A4.47,4.47,0,0,1,381.44,6a7.89,7.89,0,0,1,1.57.16l.09.11V9.91L383,10h-2.17l-.1-.07a3.25,3.25,0,0,0-.55-1.18,1.2,1.2,0,0,0-.95-.43,1.26,1.26,0,0,0-.62.19,2.23,2.23,0,0,0-.64.53,2.21,2.21,0,0,0-.41.7,3.42,3.42,0,0,0-.16.72,10,10,0,0,0,0,1.09V16a13,13,0,0,0,.09,1.87,1.63,1.63,0,0,0,.36.83,1.65,1.65,0,0,0,.84.41l.08.1V20l-.1.1Z"/><path class="cls-1" d="M386.32,20.09l-.11-.1v-.75l.08-.11a2.08,2.08,0,0,0,.53-.21,1.16,1.16,0,0,0,.35-.3,1.89,1.89,0,0,0,.21-.45,3.08,3.08,0,0,0,.12-.75c0-.33,0-.79,0-1.39V5.1c0-.81,0-1.4,0-1.78a7.7,7.7,0,0,0-.08-.95,1.57,1.57,0,0,0-.19-.61,1,1,0,0,0-.38-.37,2.72,2.72,0,0,0-.71-.24l-.08-.1V.3l.1-.11L389.65,0h1.52l.11.11V16a14.68,14.68,0,0,0,.08,1.84,1.66,1.66,0,0,0,.31.8,1.6,1.6,0,0,0,.83.46l.07.11V20l-.1.1Z"/><path class="cls-1" d="M401.29,20.32a4,4,0,0,1-3.54-1.76,9.59,9.59,0,0,1-1.17-5.27,10.12,10.12,0,0,1,.71-4,5.24,5.24,0,0,1,2.12-2.48A6.53,6.53,0,0,1,402.8,6a8.22,8.22,0,0,1,1.12.07,10.2,10.2,0,0,1,1.31.3V5.06c0-1,0-1.7,0-2.13A3.77,3.77,0,0,0,405,2a1.09,1.09,0,0,0-.37-.51,2.37,2.37,0,0,0-.81-.3l-.09-.11V.3l.11-.11L407.35,0h1.52l.11.11V16q0,1.06,0,1.56a2.51,2.51,0,0,0,.15.78,1,1,0,0,0,.37.48,2.34,2.34,0,0,0,.79.31l.08.11V20l-.1.11-3.43.12h-1.46l-.11-.11.11-1.92h-.18a7.55,7.55,0,0,1-2,1.57A4.2,4.2,0,0,1,401.29,20.32Zm1.77-12.9a1.81,1.81,0,0,0-1.37.62,4.15,4.15,0,0,0-.87,1.8,12,12,0,0,0-.29,2.79,11.52,11.52,0,0,0,.56,4.12,1.84,1.84,0,0,0,1.73,1.35,2.28,2.28,0,0,0,1.1-.3,2.53,2.53,0,0,0,.92-.92,2.73,2.73,0,0,0,.38-1.43V10.78a4.83,4.83,0,0,0-.53-2.54A1.82,1.82,0,0,0,403.06,7.42Z"/></g></g></svg>