<svg xmlns="http://www.w3.org/2000/svg" x="0px" y="0px" width="570" height="39" viewBox="0 0 570 39"><defs><style>.cls-1{fill:#231815;}.cls-2{fill:#b5dedb;}.cls-3{fill:none;stroke:#231815;stroke-miterlimit:10;stroke-width:0.7px;}</style></defs><title>ja_02</title><g id="レイヤー_2" data-name="レイヤー 2"><g id="レイヤー_1-2" data-name="レイヤー 1"><path class="cls-1" d="M304,24.91l-.07-.08.06-.53a3.51,3.51,0,0,0,.5-.19.73.73,0,0,0,.26-.29,1.25,1.25,0,0,0,.11-.47,7.18,7.18,0,0,0,0-.73V14.8c0-.28,0-.52,0-.72a1.41,1.41,0,0,0-.11-.47.75.75,0,0,0-.27-.29,2.14,2.14,0,0,0-.49-.2v-.61h8.33V15.4h-1.16a5.89,5.89,0,0,0-.47-1.16,1.41,1.41,0,0,0-.46-.48,1.7,1.7,0,0,0-.91-.18h-1.83v4.35h1.1a1.17,1.17,0,0,0,.58-.12.88.88,0,0,0,.34-.37,3.11,3.11,0,0,0,.27-.82h.95v3.69l-.07.07-.88-.07a4.18,4.18,0,0,0-.26-.8,1,1,0,0,0-.34-.39,1.16,1.16,0,0,0-.59-.12h-1.11v4.84h1.82a3.11,3.11,0,0,0,.49,0,1.42,1.42,0,0,0,.36-.14,1.54,1.54,0,0,0,.3-.28,1.64,1.64,0,0,0,.26-.37,3.24,3.24,0,0,0,.24-.52c.08-.22.17-.52.28-.9h1.15l-.15,3.25-.07.07Z"/><path class="cls-1" d="M315,24.91l-.06-.08.06-.53a1.1,1.1,0,0,0,.56-.31,1.14,1.14,0,0,0,.21-.51,10,10,0,0,0,.05-1.19V18.56c0-.45,0-.78,0-1a1.65,1.65,0,0,0-.1-.52.7.7,0,0,0-.24-.32,1.55,1.55,0,0,0-.57-.21v-.63l3.36-.07.07.08-.19,1.24.12,0a6.83,6.83,0,0,1,.89-.79,3.67,3.67,0,0,1,.82-.45,2.59,2.59,0,0,1,.92-.17A2.73,2.73,0,0,1,322,16a1.72,1.72,0,0,1,.73.63,2.76,2.76,0,0,1,.41,1,6.91,6.91,0,0,1,.12,1.37v3.32c0,.27,0,.52,0,.75a3.54,3.54,0,0,0,.06.56,1.2,1.2,0,0,0,.14.34.78.78,0,0,0,.25.22,1.5,1.5,0,0,0,.38.15v.55l-4.08.06-.06-.08.06-.53a1,1,0,0,0,.54-.29,1.22,1.22,0,0,0,.2-.53,7.84,7.84,0,0,0,.06-1.19V19.87c0-.43,0-.79,0-1.06a4.9,4.9,0,0,0-.08-.68,1.62,1.62,0,0,0-.15-.44,1.27,1.27,0,0,0-.21-.29.74.74,0,0,0-.27-.16,1,1,0,0,0-.38-.06,1.18,1.18,0,0,0-.66.22,1.78,1.78,0,0,0-.58.58,1.46,1.46,0,0,0-.23.81v3.49a8.24,8.24,0,0,0,.05,1.2,1.11,1.11,0,0,0,.2.53,1,1,0,0,0,.55.29v.61L319,25Z"/><path class="cls-1" d="M326.57,24.91l-.07-.08.07-.53a1.1,1.1,0,0,0,.56-.31,1,1,0,0,0,.2-.51,7.75,7.75,0,0,0,.06-1.19V18.56c0-.45,0-.78,0-1a2,2,0,0,0-.1-.52.77.77,0,0,0-.24-.32,1.62,1.62,0,0,0-.57-.21v-.63l3.36-.07.07.08-.19,1.3.13,0a3.7,3.7,0,0,1,1.24-1.14,2.9,2.9,0,0,1,1.4-.34,5.08,5.08,0,0,1,1.07.12v2.51H332a2.44,2.44,0,0,0-.37-.81.79.79,0,0,0-.62-.28.86.86,0,0,0-.4.12,1.66,1.66,0,0,0-.41.35,1.79,1.79,0,0,0-.27.45,2.3,2.3,0,0,0-.1.47,5.93,5.93,0,0,0,0,.7v2.9a8.25,8.25,0,0,0,.06,1.21,1,1,0,0,0,.23.53,1.12,1.12,0,0,0,.6.28v.55l-.07.06Z"/><path class="cls-1" d="M335.69,24.91l-.07-.08.07-.53a1.1,1.1,0,0,0,.56-.31,1,1,0,0,0,.21-.51,7.84,7.84,0,0,0,.06-1.19V18.07a6.42,6.42,0,0,0,0-.72,1.14,1.14,0,0,0-.14-.43.71.71,0,0,0-.29-.25,1.77,1.77,0,0,0-.46-.15v-.63l3.37-.07v6.46c0,.34,0,.6,0,.79a3.32,3.32,0,0,0,0,.42,1.76,1.76,0,0,0,.07.27,1.19,1.19,0,0,0,.12.22.8.8,0,0,0,.22.17,1.18,1.18,0,0,0,.37.15v.55l-.07.06Zm.89-10.4V12.27h2.31v2.17l-.07.07Z"/><path class="cls-1" d="M346.08,25.05a3.4,3.4,0,0,1-2.78-1.16,5.14,5.14,0,0,1-1-3.36,6,6,0,0,1,.52-2.58,3.7,3.7,0,0,1,1.51-1.64,4.5,4.5,0,0,1,2.25-.56,8.89,8.89,0,0,1,1.36.1,8.23,8.23,0,0,1,1.23.29v2.19h-1.67a3.49,3.49,0,0,0-.38-1.25.8.8,0,0,0-.71-.39,1.12,1.12,0,0,0-.59.17,1.4,1.4,0,0,0-.5.58,4.22,4.22,0,0,0-.34,1.1,10.79,10.79,0,0,0-.12,1.76,7.54,7.54,0,0,0,.18,1.79,2.27,2.27,0,0,0,.6,1.13,1.48,1.48,0,0,0,1.07.39,2,2,0,0,0,.92-.23,4.67,4.67,0,0,0,1-.81h.11l.55.84a6.15,6.15,0,0,1-1.6,1.25A3.75,3.75,0,0,1,346.08,25.05Z"/><path class="cls-1" d="M351.42,24.91l-.07-.08.07-.53.08-.06h0a.56.56,0,0,0,.3-.09A.61.61,0,0,0,352,24a.87.87,0,0,0,.14-.29,1.77,1.77,0,0,0,.08-.49c0-.2,0-.5,0-.89V15.2c0-.52,0-.9,0-1.15s0-.45-.05-.61a1.17,1.17,0,0,0-.13-.4.69.69,0,0,0-.24-.24,1.92,1.92,0,0,0-.51-.16V12l2.32-.12h1.05v5.19a7.22,7.22,0,0,1,1.38-1,2.76,2.76,0,0,1,1.24-.3,2.33,2.33,0,0,1,1.42.37,2,2,0,0,1,.74,1.06,5.9,5.9,0,0,1,.23,1.79v3.31c0,.27,0,.52,0,.75a2.57,2.57,0,0,0,.07.56,1.34,1.34,0,0,0,.13.34.76.76,0,0,0,.25.22,1.67,1.67,0,0,0,.38.15v.55l-4.07.06-.07-.08.06-.53A1,1,0,0,0,357,24a1,1,0,0,0,.2-.52,8,8,0,0,0,.06-1.2V19.92a12.65,12.65,0,0,0-.06-1.41,2.3,2.3,0,0,0-.18-.78,1.07,1.07,0,0,0-.33-.41,1,1,0,0,0-.54-.14,1.24,1.24,0,0,0-.67.22,1.67,1.67,0,0,0-.57.58,1.37,1.37,0,0,0-.23.78v3.52c0,.34,0,.6,0,.79a3.32,3.32,0,0,0,0,.42,1.07,1.07,0,0,0,.07.27.94.94,0,0,0,.12.22,1,1,0,0,0,.21.18,1.8,1.8,0,0,0,.38.14v.61l-.07.06Z"/><path class="cls-1" d="M363,24.91l-.07-.08.06-.53a1.09,1.09,0,0,0,.57-.31,1.14,1.14,0,0,0,.21-.51,10.09,10.09,0,0,0,.05-1.19V18.07a4.67,4.67,0,0,0,0-.72,1,1,0,0,0-.14-.43.68.68,0,0,0-.28-.25,2,2,0,0,0-.47-.15v-.63l3.36-.07v6.46c0,.34,0,.6,0,.79a3.32,3.32,0,0,0,0,.42,1.07,1.07,0,0,0,.07.27,1.19,1.19,0,0,0,.12.22,1,1,0,0,0,.21.18,1.8,1.8,0,0,0,.38.14v.55l-.07.06Zm.88-10.4V12.27h2.3v2.17l-.07.07Z"/><path class="cls-1" d="M369.61,24.91l-.07-.08.06-.53a1.1,1.1,0,0,0,.56-.31,1.14,1.14,0,0,0,.21-.51,8.16,8.16,0,0,0,.05-1.19V18.56c0-.45,0-.78,0-1a1.41,1.41,0,0,0-.1-.52.7.7,0,0,0-.24-.32,1.56,1.56,0,0,0-.56-.21v-.63l3.36-.07.07.08-.19,1.24.12,0a6.83,6.83,0,0,1,.89-.79,3.53,3.53,0,0,1,.83-.45,2.49,2.49,0,0,1,.91-.17,2.73,2.73,0,0,1,1.14.21,1.8,1.8,0,0,1,.74.63,2.76,2.76,0,0,1,.4,1,6.91,6.91,0,0,1,.12,1.37v3.32c0,.27,0,.52,0,.75a2.57,2.57,0,0,0,.07.56,1.21,1.21,0,0,0,.13.34.76.76,0,0,0,.25.22,1.67,1.67,0,0,0,.38.15v.55l-4.08.06-.06-.08.06-.53a1,1,0,0,0,.54-.29,1.11,1.11,0,0,0,.2-.53,7.84,7.84,0,0,0,.06-1.19V19.87c0-.43,0-.79,0-1.06a4.9,4.9,0,0,0-.08-.68,1.34,1.34,0,0,0-.15-.44,1.27,1.27,0,0,0-.21-.29.74.74,0,0,0-.27-.16,1,1,0,0,0-.38-.06,1.21,1.21,0,0,0-.66.22,1.78,1.78,0,0,0-.58.58,1.55,1.55,0,0,0-.23.81v3.49a8.32,8.32,0,0,0,.05,1.2,1.11,1.11,0,0,0,.2.53,1,1,0,0,0,.55.29v.61l-.07.06Z"/><path class="cls-1" d="M384.93,29a14.77,14.77,0,0,1-1.72-.1,4.72,4.72,0,0,1-1.32-.33,2,2,0,0,1-.84-.66,1.77,1.77,0,0,1-.3-1.06,1.65,1.65,0,0,1,.3-1,2.48,2.48,0,0,1,.85-.74,1.58,1.58,0,0,1-.51-.62,2.1,2.1,0,0,1-.16-.88,2,2,0,0,1,.16-.8,2.93,2.93,0,0,1,.44-.68,6.83,6.83,0,0,1,.71-.66,2.5,2.5,0,0,1-1-1,3.19,3.19,0,0,1-.34-1.52,3.54,3.54,0,0,1,.28-1.45,2.82,2.82,0,0,1,.77-1,3.19,3.19,0,0,1,1.16-.55,5.57,5.57,0,0,1,1.44-.18,5.72,5.72,0,0,1,.76,0l.64.1h3l.07.08-.06,1.15-.08.06L387.84,17l0,.11a1.68,1.68,0,0,1,.4.68,3.24,3.24,0,0,1,.15,1.05,3.1,3.1,0,0,1-.88,2.4,3.71,3.71,0,0,1-2.61.82,4.69,4.69,0,0,1-1.36-.16,1.23,1.23,0,0,0-.41.88.71.71,0,0,0,.1.41.64.64,0,0,0,.36.22,2.57,2.57,0,0,0,.71.08h2.08a3.23,3.23,0,0,1,2.1.59,2.3,2.3,0,0,1,.7,1.84,2.85,2.85,0,0,1-.51,1.67,3.26,3.26,0,0,1-1.46,1.07A6.35,6.35,0,0,1,384.93,29Zm-1.61-3.49a1.76,1.76,0,0,0-.45.55,1.53,1.53,0,0,0-.16.69,1.06,1.06,0,0,0,.52,1,3.37,3.37,0,0,0,1.66.31,2.74,2.74,0,0,0,1.6-.38,1.21,1.21,0,0,0,.55-1.06,1.22,1.22,0,0,0-.1-.53.86.86,0,0,0-.39-.36,1.91,1.91,0,0,0-.83-.14h-1.44C383.87,25.53,383.55,25.51,383.32,25.49Zm1.52-8.8a1,1,0,0,0-.92.52,3.48,3.48,0,0,0-.29,1.6,3.88,3.88,0,0,0,.29,1.7,1,1,0,0,0,.93.56,1,1,0,0,0,.89-.52A3.21,3.21,0,0,0,386,19a3.78,3.78,0,0,0-.3-1.7A1,1,0,0,0,384.84,16.69Z"/><path class="cls-1" d="M397.36,24.91l-.07-.08.07-.53.08-.06h0a.59.59,0,0,0,.3-.09A.61.61,0,0,0,398,24a1.12,1.12,0,0,0,.14-.29,1.83,1.83,0,0,0,.07-.49c0-.2,0-.5,0-.89V15.2c0-.52,0-.9,0-1.15s0-.45-.05-.61A1.17,1.17,0,0,0,398,13a.62.62,0,0,0-.24-.24,2.05,2.05,0,0,0-.51-.16V12l2.33-.12h1.05V22.28a10.09,10.09,0,0,0,.05,1.19,1.18,1.18,0,0,0,.21.52,1.12,1.12,0,0,0,.58.31v.55l-.07.06Z"/><path class="cls-1" d="M404,24.91l-.07-.08.06-.53a1.09,1.09,0,0,0,.57-.31,1.14,1.14,0,0,0,.21-.51,10.09,10.09,0,0,0,.05-1.19V18.07a6.83,6.83,0,0,0,0-.72,1.14,1.14,0,0,0-.15-.43.62.62,0,0,0-.28-.25,1.91,1.91,0,0,0-.46-.15v-.63l3.36-.07v6.46c0,.34,0,.6,0,.79a3.32,3.32,0,0,0,0,.42,1.07,1.07,0,0,0,.07.27,1.19,1.19,0,0,0,.12.22.67.67,0,0,0,.22.17,1.18,1.18,0,0,0,.37.15v.55l-.07.06Zm.89-10.4V12.27h2.31v2.17l-.07.07Z"/><path class="cls-1" d="M413.35,25l-2.22-6.91a5.76,5.76,0,0,0-.37-1,1.32,1.32,0,0,0-.31-.4,1,1,0,0,0-.42-.2v-.61h4.19l.07.08-.06.54-.09.06a.71.71,0,0,0-.49.18.61.61,0,0,0-.19.48,4.29,4.29,0,0,0,.22,1.14l1.21,4,1.32-3.47a4.83,4.83,0,0,0,.25-.77,2.48,2.48,0,0,0,.09-.65,1,1,0,0,0-.2-.63,1,1,0,0,0-.57-.31v-.61H419l.07.08-.06.55-.08.06a.55.55,0,0,0-.31.13,1.42,1.42,0,0,0-.28.31,4.21,4.21,0,0,0-.31.56c-.13.26-.29.64-.51,1.14L415,25l-.06,0Z"/><path class="cls-1" d="M424.87,25.05a3.65,3.65,0,0,1-2.94-1.16,5.2,5.2,0,0,1-1-3.43,5.84,5.84,0,0,1,.51-2.54,3.63,3.63,0,0,1,1.44-1.62,4.65,4.65,0,0,1,3.51-.36,3,3,0,0,1,1,.53,2.81,2.81,0,0,1,.68.82,4.54,4.54,0,0,1,.48,1.31,9.35,9.35,0,0,1,.18,1.83H423.4a4.44,4.44,0,0,0,.54,2.41,1.84,1.84,0,0,0,1.62.78,2.56,2.56,0,0,0,1.15-.26,4,4,0,0,0,1.1-.91h.11l.58.8a5.6,5.6,0,0,1-1.7,1.4A4.35,4.35,0,0,1,424.87,25.05Zm.05-8.35a1.15,1.15,0,0,0-1,.71,5,5,0,0,0-.46,2h2.79a5.92,5.92,0,0,0-.34-2.06A1,1,0,0,0,424.92,16.7Z"/><path class="cls-1" d="M434.26,25.05a12.87,12.87,0,0,1-3.08-.42V22.45h1.13a2.52,2.52,0,0,0,.64,1.24,1.64,1.64,0,0,0,1.16.41,1.33,1.33,0,0,0,.95-.31,1.18,1.18,0,0,0,.32-.89,1.29,1.29,0,0,0-.15-.64,1.72,1.72,0,0,0-.48-.5,9.36,9.36,0,0,0-1.16-.63,6.06,6.06,0,0,1-.87-.48,3.18,3.18,0,0,1-.71-.6,2.62,2.62,0,0,1-.48-.74,2.24,2.24,0,0,1-.18-.91,2.37,2.37,0,0,1,.44-1.42,2.77,2.77,0,0,1,1.25-.91,5,5,0,0,1,1.85-.32c.41,0,.81,0,1.2.05s.89.12,1.52.24v2.12h-1.12a3.43,3.43,0,0,0-.42-.9,1.24,1.24,0,0,0-.5-.43,1.54,1.54,0,0,0-.67-.13A1.31,1.31,0,0,0,434,17a.94.94,0,0,0-.33.76,1.32,1.32,0,0,0,.12.59,1.39,1.39,0,0,0,.42.47,6.27,6.27,0,0,0,1.16.63,6.1,6.1,0,0,1,1.29.74,2.65,2.65,0,0,1,.75.89,2.57,2.57,0,0,1,.26,1.18,2.89,2.89,0,0,1-.25,1.26,2.37,2.37,0,0,1-.71.88,3.19,3.19,0,0,1-1.08.52A5.66,5.66,0,0,1,434.26,25.05Z"/><path class="cls-1" d="M448,25.05a2.66,2.66,0,0,1-1.26-.28,1.93,1.93,0,0,1-.8-.8,2.33,2.33,0,0,1-.28-1.17,2.4,2.4,0,0,1,1.21-2.11,8.47,8.47,0,0,1,3.68-1v-.86a3.65,3.65,0,0,0-.18-1.29,1.26,1.26,0,0,0-.45-.65,1.16,1.16,0,0,0-.66-.18,1.53,1.53,0,0,0-.66.14,1.31,1.31,0,0,0-.51.55,3.32,3.32,0,0,0-.33,1.12h-1.59V16.89a6.84,6.84,0,0,1,.72-.33l.57-.24c.34-.13.68-.24,1-.33a8,8,0,0,1,.89-.19,7.13,7.13,0,0,1,.79-.05,3.87,3.87,0,0,1,1.63.29,1.84,1.84,0,0,1,.91.95,4.4,4.4,0,0,1,.3,1.8v3.54q0,.6,0,.93a2,2,0,0,0,.08.48.65.65,0,0,0,.14.26.62.62,0,0,0,.2.15,2.69,2.69,0,0,0,.46.15v.61h-3.13l-.06-.08.14-1.12-.14,0a5,5,0,0,1-1.32,1.06A3.14,3.14,0,0,1,448,25.05Zm2.56-4.43a3.33,3.33,0,0,0-1.92.53,1.72,1.72,0,0,0-.62,1.43,1.2,1.2,0,0,0,.28.86,1.08,1.08,0,0,0,.79.29,1.35,1.35,0,0,0,.72-.22,1.67,1.67,0,0,0,.75-1.38Z"/><path class="cls-1" d="M456.2,24.91l-.07-.08.07-.53a1.1,1.1,0,0,0,.56-.31,1,1,0,0,0,.2-.51,7.75,7.75,0,0,0,.06-1.19V18.56c0-.45,0-.78,0-1a2,2,0,0,0-.1-.52.8.8,0,0,0-.25-.32,1.48,1.48,0,0,0-.56-.21v-.63l3.36-.07.07.08-.19,1.24.11,0V17.1c.37-.31.65-.55.89-.73a3.53,3.53,0,0,1,.83-.45,2.53,2.53,0,0,1,.91-.17,2.7,2.7,0,0,1,1.14.21,1.74,1.74,0,0,1,.74.63,2.59,2.59,0,0,1,.4,1,6.91,6.91,0,0,1,.12,1.37v3.32c0,.27,0,.52,0,.75a3.54,3.54,0,0,0,.06.56,1.05,1.05,0,0,0,.14.34.85.85,0,0,0,.24.22,1.76,1.76,0,0,0,.39.15v.55l-4.08.06-.07-.08.07-.53a1,1,0,0,0,.53-.29,1.23,1.23,0,0,0,.21-.53,10.09,10.09,0,0,0,.05-1.19V19.87c0-.43,0-.79,0-1.06s0-.5-.08-.68a2.05,2.05,0,0,0-.15-.44,1.69,1.69,0,0,0-.22-.29.63.63,0,0,0-.26-.16,1.07,1.07,0,0,0-.39-.06,1.21,1.21,0,0,0-.66.22,1.76,1.76,0,0,0-.57.58,1.47,1.47,0,0,0-.24.81v3.49a10.42,10.42,0,0,0,.05,1.2,1.23,1.23,0,0,0,.21.53,1,1,0,0,0,.54.29v.61l-.07.06Z"/><path class="cls-1" d="M470.38,25.05a2.6,2.6,0,0,1-2.29-1.13,6.28,6.28,0,0,1-.76-3.42,6.65,6.65,0,0,1,.46-2.6,3.47,3.47,0,0,1,1.38-1.61,4.21,4.21,0,0,1,2.19-.54,5.84,5.84,0,0,1,.73.05,6,6,0,0,1,.84.19v-.82c0-.65,0-1.1,0-1.37a2.66,2.66,0,0,0-.1-.62.83.83,0,0,0-.24-.33,1.83,1.83,0,0,0-.58-.21V12l2.33-.12h1V22.25c0,.46,0,.8,0,1a1.58,1.58,0,0,0,.1.51.73.73,0,0,0,.24.31,1.64,1.64,0,0,0,.56.21v.62L474,25h-1l-.07-.08.14-1.24h-.14a4.16,4.16,0,0,1-1.25,1A2.68,2.68,0,0,1,470.38,25.05Zm1.15-8.35a1.18,1.18,0,0,0-.89.41,2.57,2.57,0,0,0-.56,1.16,7.36,7.36,0,0,0-.19,1.8,7.45,7.45,0,0,0,.36,2.67,1.21,1.21,0,0,0,1.12.88,1.51,1.51,0,0,0,.72-.2,1.67,1.67,0,0,0,.59-.59,1.8,1.8,0,0,0,.25-.93v-3a3.05,3.05,0,0,0-.35-1.64A1.16,1.16,0,0,0,471.53,16.7Z"/><path class="cls-1" d="M487.33,25.05a2.31,2.31,0,0,1-1.87-.73,3.37,3.37,0,0,1-.62-2.21V17h-1l-.07-.08.07-.56a1.82,1.82,0,0,0,.75-.27,1.21,1.21,0,0,0,.38-.48,3,3,0,0,0,.21-.8c.05-.32.09-.73.12-1.22h2V15.9h2.38V17h-2.4v4.09a10.82,10.82,0,0,0,.08,1.51,1.42,1.42,0,0,0,.3.72.65.65,0,0,0,.52.23,1.73,1.73,0,0,0,.41,0,1.59,1.59,0,0,0,.39-.17,2,2,0,0,0,.43-.33h.11l.43.76a5.82,5.82,0,0,1-1.34,1A3.13,3.13,0,0,1,487.33,25.05Z"/><path class="cls-1" d="M491.81,24.91l-.07-.08.06-.53.08-.06h0a.59.59,0,0,0,.3-.09.71.71,0,0,0,.22-.2,1.12,1.12,0,0,0,.14-.29,1.83,1.83,0,0,0,.07-.49c0-.2,0-.5,0-.89V15.2c0-.52,0-.9,0-1.15a4.48,4.48,0,0,0-.06-.61,1.19,1.19,0,0,0-.12-.4.69.69,0,0,0-.24-.24,1.7,1.7,0,0,0-.51-.16V12L494,11.9h1.05v5.19a7.54,7.54,0,0,1,1.39-1,2.72,2.72,0,0,1,1.23-.3,2.34,2.34,0,0,1,1.43.37,2.08,2.08,0,0,1,.74,1.06A5.9,5.9,0,0,1,500.1,19v3.31c0,.27,0,.52,0,.75a3.54,3.54,0,0,0,.06.56,1.2,1.2,0,0,0,.14.34.78.78,0,0,0,.25.22,1.5,1.5,0,0,0,.38.15v.55l-4.08.06-.07-.08.07-.53a.92.92,0,0,0,.54-.29,1.07,1.07,0,0,0,.2-.52,8,8,0,0,0,.06-1.2V19.92a12.78,12.78,0,0,0-.06-1.41,3,3,0,0,0-.18-.78,1,1,0,0,0-.34-.41.94.94,0,0,0-.54-.14,1.23,1.23,0,0,0-.66.22,1.78,1.78,0,0,0-.58.58,1.45,1.45,0,0,0-.23.78v3.52c0,.34,0,.6,0,.79a3.7,3.7,0,0,0,0,.42c0,.1.05.19.07.27a1.59,1.59,0,0,0,.13.22.74.74,0,0,0,.21.17,1.37,1.37,0,0,0,.38.15v.61l-.07.06Z"/><path class="cls-1" d="M507.36,25.05a3.68,3.68,0,0,1-2.95-1.16,5.2,5.2,0,0,1-1-3.43,5.81,5.81,0,0,1,.51-2.54,3.57,3.57,0,0,1,1.44-1.62,4.63,4.63,0,0,1,3.5-.36,3.11,3.11,0,0,1,1,.53,3.17,3.17,0,0,1,.68.82A4.94,4.94,0,0,1,511,18.6a8.7,8.7,0,0,1,.17,1.83h-5.32a4.5,4.5,0,0,0,.55,2.41,1.83,1.83,0,0,0,1.62.78,2.52,2.52,0,0,0,1.14-.26,4.19,4.19,0,0,0,1.11-.91h.11l.58.8a5.72,5.72,0,0,1-1.7,1.4A4.41,4.41,0,0,1,507.36,25.05Zm.05-8.35a1.14,1.14,0,0,0-1,.71,4.88,4.88,0,0,0-.46,2h2.79a6.16,6.16,0,0,0-.34-2.06A1,1,0,0,0,507.41,16.7Z"/><path class="cls-1" d="M521.69,25l-2-6.91c-.13-.42-.23-.73-.31-.92a1.59,1.59,0,0,0-.29-.45.89.89,0,0,0-.42-.22v-.61h4.11l.07.08-.07.54-.1.06a.73.73,0,0,0-.49.19.68.68,0,0,0-.19.52,2.34,2.34,0,0,0,.06.5c0,.19.1.38.15.59l1.05,3.76,1.92-6.23h1.57l1.63,6.25,1.09-3.28a8.6,8.6,0,0,0,.23-.83,3.37,3.37,0,0,0,.06-.59,1,1,0,0,0-.2-.63.94.94,0,0,0-.57-.31v-.61h3.17l.06.08-.06.55-.08.06a.51.51,0,0,0-.31.12,1,1,0,0,0-.26.3,3.9,3.9,0,0,0-.28.55q-.15.38-.45,1.17L528.49,25,526.8,25l-1.59-5.86L523.39,25l-.07,0Z"/><path class="cls-1" d="M538.1,25.05a4.58,4.58,0,0,1-2.13-.46,3.28,3.28,0,0,1-1.39-1.5,6,6,0,0,1-.51-2.63,6.55,6.55,0,0,1,.31-2.1,4.14,4.14,0,0,1,.87-1.48,3.41,3.41,0,0,1,1.32-.85,4.76,4.76,0,0,1,1.67-.28,3.89,3.89,0,0,1,3.06,1.16,4.94,4.94,0,0,1,1,3.39,6.14,6.14,0,0,1-.51,2.65,3.48,3.48,0,0,1-1.46,1.59A4.71,4.71,0,0,1,538.1,25.05Zm.1-8.35a1.17,1.17,0,0,0-.91.39,2.66,2.66,0,0,0-.5,1.17,10.83,10.83,0,0,0-.16,2,8.09,8.09,0,0,0,.4,2.89,1.3,1.3,0,0,0,1.2,1,1.15,1.15,0,0,0,.74-.24,1.7,1.7,0,0,0,.47-.71A4.53,4.53,0,0,0,539.7,22a12.71,12.71,0,0,0,.08-1.46,8.18,8.18,0,0,0-.4-2.91C539.11,17,538.72,16.7,538.2,16.7Z"/><path class="cls-1" d="M545,24.91l-.07-.08.06-.53a1.1,1.1,0,0,0,.56-.31,1.14,1.14,0,0,0,.21-.51,8.16,8.16,0,0,0,.05-1.19V18.56c0-.45,0-.78,0-1a1.65,1.65,0,0,0-.1-.52.7.7,0,0,0-.24-.32,1.56,1.56,0,0,0-.56-.21v-.63l3.36-.07.07.08-.18,1.3.12,0a3.9,3.9,0,0,1,1.24-1.14,2.93,2.93,0,0,1,1.4-.34,5.25,5.25,0,0,1,1.08.12v2.51h-1.53a2.26,2.26,0,0,0-.37-.81.77.77,0,0,0-.61-.28.9.9,0,0,0-.41.12,1.86,1.86,0,0,0-.41.35,1.49,1.49,0,0,0-.26.45,1.79,1.79,0,0,0-.11.47c0,.15,0,.39,0,.7v2.9a10.63,10.63,0,0,0,.05,1.21,1,1,0,0,0,.24.53,1,1,0,0,0,.59.28v.55l-.07.06Z"/><path class="cls-1" d="M554,24.91l-.07-.08.06-.53.08-.06h0a.59.59,0,0,0,.3-.09.71.71,0,0,0,.22-.2,1.12,1.12,0,0,0,.14-.29,1.83,1.83,0,0,0,.07-.49c0-.2,0-.5,0-.89V15.2c0-.52,0-.9,0-1.15s0-.45-.05-.61a1.17,1.17,0,0,0-.13-.4.62.62,0,0,0-.24-.24,1.7,1.7,0,0,0-.51-.16V12l2.33-.12h1V22.28a10.09,10.09,0,0,0,.05,1.19,1.24,1.24,0,0,0,.21.52,1.12,1.12,0,0,0,.58.31v.55l-.07.06Z"/><path class="cls-1" d="M563.76,25.05a2.57,2.57,0,0,1-2.28-1.13,6.19,6.19,0,0,1-.76-3.42,6.47,6.47,0,0,1,.46-2.6,3.45,3.45,0,0,1,1.37-1.61,4.22,4.22,0,0,1,2.2-.54,5.81,5.81,0,0,1,.72.05,6,6,0,0,1,.84.19v-.82c0-.65,0-1.1,0-1.37a2.28,2.28,0,0,0-.1-.62.68.68,0,0,0-.24-.33,1.74,1.74,0,0,0-.58-.21V12l2.33-.12h1V22.25c0,.46,0,.8,0,1a2,2,0,0,0,.1.51.73.73,0,0,0,.24.31,1.64,1.64,0,0,0,.56.21v.62l-2.28.08h-1l-.06-.08.14-1.24h-.15a4.26,4.26,0,0,1-1.24,1A2.75,2.75,0,0,1,563.76,25.05Zm1.15-8.35a1.18,1.18,0,0,0-.89.41,2.67,2.67,0,0,0-.56,1.16,7.89,7.89,0,0,0-.19,1.8,7.41,7.41,0,0,0,.37,2.67,1.19,1.19,0,0,0,1.11.88,1.51,1.51,0,0,0,.72-.2,1.69,1.69,0,0,0,.6-.59,1.79,1.79,0,0,0,.24-.93v-3a3.05,3.05,0,0,0-.35-1.64A1.15,1.15,0,0,0,564.91,16.7Z"/><path class="cls-2" d="M42.83,10.71l-2.45,1.85L35.52,8.91,38,7.05,28.59,0,26.12,1.86,23.64,0l-9.4,7.05,2.47,1.86-4.85,3.65L9.4,10.71,0,17.77l2.45,1.84L0,21.45,9.4,28.5l2.46-1.84,4.85,3.65-2.47,1.85,9.4,7.06,2.48-1.86,2.47,1.86L38,32.16l-2.48-1.85,4.86-3.65,2.45,1.84,9.4-7-2.45-1.84,2.45-1.84ZM26.12,23.25l-4.86-3.64L26.12,16,31,19.61Z"/><path class="cls-1" d="M103,32.88V23.47H112V19.26H103V11.62h9.85V7.41H88.62v4.21h9.85v7.64H89.41v4.21h9.06v9.41H87.35v4.21H113.8V32.88Zm.4-27.39L101.9.2H97.39l1.47,5.29ZM83.58.35C82.5,8.58,79,13.09,75.44,16.27l.1,5.59a23.3,23.3,0,0,0,5.14-4.41V38.09h4.51V10.41A31.17,31.17,0,0,0,87.94.35Z"/><path class="cls-1" d="M129.67,33.71V38c6.56-.67,10.83-2.51,14.15-4.82a29.31,29.31,0,0,0,15.05,4.85l-.1-4.34a26,26,0,0,1-11.4-3.39A25.16,25.16,0,0,0,155.24,14H134c.19-1.31.31-2.68.39-4.12h24.19V5.69H134.44L134.38.36h-4.64V5.69h-9.56V9.9h9.52c-.19,3.47-1.41,15-9.56,21.3l.26,5.29s9.51-4.74,12.89-18.76a27.14,27.14,0,0,0,7,12.55c-.45.27-.89.52-1.32.74A25.29,25.29,0,0,1,129.67,33.71ZM138,18.23h11.76a20.57,20.57,0,0,1-6,9.47A20.28,20.28,0,0,1,138,18.23"/><path class="cls-1" d="M203.43,7.16V3H186.29V.2h-4.5V3h-17V7.16h9L174.84,11h-8.11v27h4.51V24.86c2.25-.5,9.29-2.61,11-9.62h2.68v3.14c0,1.81.17,3.67,3.7,3.67H197V33.94h-2.64s0,4.28,0,4.28c2.57-.07,7.07.52,7.16-3.23V11h-8.23l1.07-3.87ZM171.24,20.67V15.24h6.39A7.18,7.18,0,0,1,171.24,20.67ZM179.35,11l-1.06-3.87h11.59L188.81,11ZM197,15.24v3.29h-7.61V15.24ZM175.53,24V35.43h17.16V24ZM180,27.49h8.16V31.9H180Z"/><path class="cls-1" d="M213.34,8.47v8.22h13.19v1.62H212.6V21.6h13.93v2h-17.1v3.3h17.1V29H212.6v3.29h13.93V34.5h-4.79v3.75h4.71c5.14,0,4.58-2.85,4.58-4v-2h14.72V26.92h2.38v-3.3h-2.39V18.31H231V16.69h13.22V8.47H231V6.8h17.1V3.05H231V.18h-4.5V3.05h-17.1V6.8h17.1V8.47ZM231,11.57h8.69v2H231Zm-4.5,2h-8.68v-2h8.68Zm4.5,8h10.2v2H231ZM241.23,29H231V26.92h10.2Z"/><line class="cls-3" x1="276.05" y1="0.18" x2="276.05" y2="38.25"/></g></g></svg>