<svg xmlns="http://www.w3.org/2000/svg" width="31" height="25" viewBox="0 0 31 25">
  <defs>
    <style>
      .cls-1 {
        fill: #fff;
        fill-rule: evenodd;
      }
    </style>
  </defs>
  <path id="Logo" class="cls-1" d="M378.748,1365a17.9,17.9,0,0,0,18.1-17.96c0-.27,0-0.55-0.018-0.81a13,13,0,0,0,3.173-3.28,12.451,12.451,0,0,1-3.652,1,6.351,6.351,0,0,0,2.8-3.49,12.806,12.806,0,0,1-4.039,1.53,6.37,6.37,0,0,0-11.005,4.32,6.289,6.289,0,0,0,.165,1.44,18.129,18.129,0,0,1-13.111-6.6,6.288,6.288,0,0,0,1.969,8.43,6.369,6.369,0,0,1-2.881-.79c0,0.03,0,.05,0,0.08a6.328,6.328,0,0,0,5.1,6.19,6.612,6.612,0,0,1-1.677.22,6.717,6.717,0,0,1-1.2-.11,6.354,6.354,0,0,0,5.943,4.38,12.866,12.866,0,0,1-9.418,2.62,18.107,18.107,0,0,0,9.75,2.83" transform="translate(-369 -1340)"/>
</svg>
